# xmcd CD database file
#
# Track frame offsets:
#	150
#	17110
#	31563
#	47167
#	64608
#	81492
#	96634
#	113017
#	130741
#	146557
#
# Disc length: 2204 seconds
#
# Revision: 0
# Processed by: cddbd v1.5.2PL0 Copyright (c) Steve Scherf et al.
# Submitted via: CDex 1.51
#
DISCID=83089a0a
DTITLE=Jackie Guy - Right Where I Wanna Be
DYEAR=2011
DGENRE=Country
TTITLE0=Can't You See
TTITLE1=Here You Come
TTITLE2=Pink Or Blue
TTITLE3=Right Where I Wanna Be
TTITLE4=Did I
TTITLE5=Intimidate Men
TTITLE6=Was It You
TTITLE7=What You See
TTITLE8=Love's Not Easy To Find
TTITLE9=I'll Wait For You
EXTD=YEAR: 2011
EXTT0=
EXTT1=
EXTT2=
EXTT3=
EXTT4=
EXTT5=
EXTT6=
EXTT7=
EXTT8=
EXTT9=
PLAYORDER=
